# xmcd
#
# Track frame offsets:
#	150
#	17457
#	32499
#	49929
#	65613
#	84593
#	111548
#	134433
#	149447
#	172669
#	189026
#	206116
#	217641
#	230412
#	246266
#	258500
#
# Disc length: 3659 seconds
#
# Revision: 0
# Processed by: cddbd v1.5.2PL0 Copyright (c) Steve Scherf et al.
# Submitted via: audiograbber 1.83.01
#
DISCID=dc0e4910
DTITLE=Zydeco Annie and Swamp Cats - Clearly
DYEAR=2009
DGENRE=Country
TTITLE0=Faix Deaux Deaux
TTITLE1=Don't You Break My Heart
TTITLE2=I Can See Clearly
TTITLE3=Bosco Stamp
TTITLE4=Hey Good Looking
TTITLE5=Goin Home Tomorrow
TTITLE6=Hip Y Tayo
TTITLE7=Oh Marie
TTITLE8=Louisiana
TTITLE9=Your Cheatin' Heart
TTITLE10=Great Balls Of Fire
TTITLE11=Mama's Got The Know How
TTITLE12=Paper In My Shoes
TTITLE13=Shake It Shake It Baby
TTITLE14=I'm Moving On
TTITLE15=Whatcha Gonna Do
EXTD=
EXTT0=
EXTT1=
EXTT2=
EXTT3=
EXTT4=
EXTT5=
EXTT6=
EXTT7=
EXTT8=
EXTT9=
EXTT10=
EXTT11=
EXTT12=
EXTT13=
EXTT14=
EXTT15=
PLAYORDER=
